<?xml version="1.0" encoding="utf-8"?>
<!-- Generator: Adobe Illustrator 17.0.0, SVG Export Plug-In . SVG Version: 6.00 Build 0)  -->
<!DOCTYPE svg PUBLIC "-//W3C//DTD SVG 1.1//EN" "http://www.w3.org/Graphics/SVG/1.1/DTD/svg11.dtd">
<svg version="1.1" id="Layer_1" xmlns="http://www.w3.org/2000/svg" xmlns:xlink="http://www.w3.org/1999/xlink" x="0px" y="0px"
	 width="1080px" height="1080px" viewBox="0 0 1080 1080" enable-background="new 0 0 1080 1080" xml:space="preserve">
<linearGradient id="SVGID_1_" gradientUnits="userSpaceOnUse" x1="658.4313" y1="422.8125" x2="719.8761" y2="422.8125" gradientTransform="matrix(1.0881 -0.3131 -0.3131 0.9395 396.3855 -29.3245)">
	<stop  offset="0" style="stop-color:#FFFFFF"/>
	<stop  offset="0.9516" style="stop-color:#FFEBAE"/>
</linearGradient>
<polygon fill="url(#SVGID_1_)" points="972,187.066 996.822,134.119 1054.07,122.19 "/>
<polygon fill="#226869" points="288.712,141.902 284.125,187.066 228.883,158.64 "/>
<polygon fill="#B0CBBD" points="946.18,231.4 952,280 929.123,258.091 "/>
<polygon fill="#1F1513" points="605.459,529.466 661.7,431.596 660.402,495.945 "/>
<polygon fill="#FFEFA0" points="792.99,187.066 819.896,196.957 799.194,253.273 "/>
<polygon fill="#B0CBBD" points="574.493,141.819 400.56,170.878 432.466,125.289 "/>
<polygon fill="#1F1513" points="219.935,416.51 131.922,505.247 89.215,479.261 "/>
<polygon fill="#B0CBBD" points="878.041,44.083 859.046,68.621 849.829,61.435 "/>
<polygon fill="#FFEFA0" points="464.641,480.531 368.698,570.484 379.381,485.736 "/>
<polygon fill="#707071" points="462.361,347.943 318.627,284 410.435,271.147 "/>
<polygon fill="#226869" points="641.935,355.264 644.374,311.357 696.386,336.266 "/>
<polygon fill="#707071" points="897.996,351.68 838.753,325.324 878.856,314.941 "/>
<polygon fill="#226869" points="157.253,658.163 163.214,550.813 300.514,612.278 "/>
</svg>
